# xmcd
#
# Track frame offsets:
#	150
#	14030
#	27645
#	40937
#	51456
#	66155
#	78834
#	90859
#	103928
#	118170
#	130842
#	142889
#	156390
#	168989
#	182353
#	194107
#	206360
#	219202
#	230161
#	244634
#	256144
#	268849
#
# Disc length: 3736 seconds
#
# Revision: 0
# Processed by: cddbd v1.5.2PL0 Copyright (c) Steve Scherf et al.
# Submitted via: audiograbber 1.83.01
#
DISCID=3e0e9616
DTITLE=B. B. King - Purely ... [CD2]
DYEAR=2009
DGENRE=Blues
TTITLE0=Why Did You Leave Me?
TTITLE1=Blind Love
TTITLE2=Wake Up This Morning
TTITLE3=Don't You Want A Man Like Me?
TTITLE4=Please Help Me
TTITLE5=Praying For The Lord
TTITLE6=The Woman I Love
TTITLE7=When My Heart Beats Like A Hammer
TTITLE8=Whole Lotta Love
TTITLE9=Every Day I Have The Blues (B. B. King's Theme Tune)
TTITLE10=Shut Your Mouth
TTITLE11=Sneakin' Around (perfomed as B. B. "Blues Boy" King And The Blues Men)
TTITLE12=Ten Long Years
TTITLE13=Crying Won't Help You
TTITLE14=Dark Is The Night (Part 1)
TTITLE15=Dark Is The Night (Part 2)
TTITLE16=I'm Cracking Up Over You
TTITLE17=Let's Do The Boogie
TTITLE18=Sweet Little Angel
TTITLE19=Did You Ever Love A Woman?
TTITLE20=I Want To Get Married
TTITLE21=(I'm Gonna) Quit My Baby
EXTD=
EXTT0=
EXTT1=
EXTT2=
EXTT3=
EXTT4=
EXTT5=
EXTT6=
EXTT7=
EXTT8=
EXTT9=
EXTT10=
EXTT11=
EXTT12=
EXTT13=
EXTT14=
EXTT15=
EXTT16=
EXTT17=
EXTT18=
EXTT19=
EXTT20=
EXTT21=
PLAYORDER=
